<svg width="24" height="24" viewBox="0 0 24 24" fill="none" xmlns="http://www.w3.org/2000/svg">
<path d="M9.7349 10.8395C9.10682 10.2114 8.79278 9.45638 8.79278 8.57439C8.79278 7.69241 9.10682 6.93738 9.7349 6.3093C10.363 5.68123 11.118 5.36719 12 5.36719C12.882 5.36719 13.637 5.68123 14.2651 6.3093C14.8932 6.93738 15.2072 7.69241 15.2072 8.57439C15.2072 9.45638 14.8932 10.2114 14.2651 10.8395C13.637 11.4676 12.882 11.7816 12 11.7816C11.118 11.7816 10.363 11.4676 9.7349 10.8395ZM5.58557 18.196V15.951C5.58557 15.4966 5.7025 15.079 5.93636 14.6982C6.17022 14.3173 6.48092 14.0266 6.86845 13.8262C7.69698 13.4119 8.53887 13.1012 9.39413 12.8941C10.2494 12.687 11.118 12.5834 12 12.5834C12.882 12.5834 13.7506 12.687 14.6058 12.8941C15.4611 13.1012 16.303 13.4119 17.1315 13.8262C17.5191 14.0266 17.8298 14.3173 18.0636 14.6982C18.2975 15.079 18.4144 15.4966 18.4144 15.951V18.196H5.58557Z" fill="url(#paint0_linear_171_12)"/>
<defs>
<linearGradient id="paint0_linear_171_12" x1="12" y1="5.36719" x2="12" y2="18.196" gradientUnits="userSpaceOnUse">
<stop stop-color="#4BAEFE"/>
<stop offset="1" stop-color="#827DFF"/>
</linearGradient>
</defs>
</svg>
