<svg width="24" height="24" viewBox="0 0 24 24" fill="none" xmlns="http://www.w3.org/2000/svg">
<path d="M6.64321 18.196C6.27493 18.196 5.95966 18.0649 5.69741 17.8026C5.43515 17.5403 5.30402 17.2251 5.30402 16.8568V8.82162C5.30402 8.45334 5.43515 8.13807 5.69741 7.87581C5.95966 7.61355 6.27493 7.48242 6.64321 7.48242H17.3568C17.7251 7.48242 18.0403 7.61355 18.3026 7.87581C18.5649 8.13807 18.696 8.45334 18.696 8.82162V16.8568C18.696 17.2251 18.5649 17.5403 18.3026 17.8026C18.0403 18.0649 17.7251 18.196 17.3568 18.196H6.64321ZM12 13.5088L17.3568 10.1608V8.82162L12 12.1696L6.64321 8.82162V10.1608L12 13.5088Z" fill="#E8EAED"/>
<path d="M6.64321 18.196C6.27493 18.196 5.95966 18.0649 5.69741 17.8026C5.43515 17.5403 5.30402 17.2251 5.30402 16.8568V8.82162C5.30402 8.45334 5.43515 8.13807 5.69741 7.87581C5.95966 7.61355 6.27493 7.48242 6.64321 7.48242H17.3568C17.7251 7.48242 18.0403 7.61355 18.3026 7.87581C18.5649 8.13807 18.696 8.45334 18.696 8.82162V16.8568C18.696 17.2251 18.5649 17.5403 18.3026 17.8026C18.0403 18.0649 17.7251 18.196 17.3568 18.196H6.64321ZM12 13.5088L17.3568 10.1608V8.82162L12 12.1696L6.64321 8.82162V10.1608L12 13.5088Z" fill="url(#paint0_linear_217_10)"/>
<defs>
<linearGradient id="paint0_linear_217_10" x1="12" y1="7.48242" x2="12" y2="18.196" gradientUnits="userSpaceOnUse">
<stop stop-color="#4BAEFE"/>
<stop offset="1" stop-color="#827DFF"/>
</linearGradient>
</defs>
</svg>
