<svg width="24" height="24" viewBox="0 0 24 24" fill="none" xmlns="http://www.w3.org/2000/svg">
<path d="M7.84438 18.197C7.46344 18.197 7.13734 18.0614 6.86607 17.7901C6.5948 17.5189 6.45917 17.1928 6.45917 16.8118V9.88578C6.45917 9.50485 6.5948 9.17875 6.86607 8.90748C7.13734 8.63621 7.46344 8.50057 7.84438 8.50057H8.53698V7.11536C8.53698 6.15726 8.87462 5.34057 9.54991 4.66528C10.2252 3.98999 11.0419 3.65234 12 3.65234C12.9581 3.65234 13.7748 3.98999 14.4501 4.66528C15.1254 5.34057 15.463 6.15726 15.463 7.11536V8.50057H16.1556C16.5366 8.50057 16.8627 8.63621 17.1339 8.90748C17.4052 9.17875 17.5408 9.50485 17.5408 9.88578V16.8118C17.5408 17.1928 17.4052 17.5189 17.1339 17.7901C16.8627 18.0614 16.5366 18.197 16.1556 18.197H7.84438ZM12.9783 14.3271C13.2496 14.0558 13.3852 13.7297 13.3852 13.3488C13.3852 12.9679 13.2496 12.6418 12.9783 12.3705C12.707 12.0992 12.3809 11.9636 12 11.9636C11.6191 11.9636 11.293 12.0992 11.0217 12.3705C10.7504 12.6418 10.6148 12.9679 10.6148 13.3488C10.6148 13.7297 10.7504 14.0558 11.0217 14.3271C11.293 14.5984 11.6191 14.734 12 14.734C12.3809 14.734 12.707 14.5984 12.9783 14.3271ZM9.92219 8.50057H14.0778V7.11536C14.0778 6.53819 13.8758 6.0476 13.4718 5.64358C13.0678 5.23956 12.5772 5.03755 12 5.03755C11.4228 5.03755 10.9322 5.23956 10.5282 5.64358C10.1242 6.0476 9.92219 6.53819 9.92219 7.11536V8.50057Z" fill="url(#paint0_linear_171_10)"/>
<defs>
<linearGradient id="paint0_linear_171_10" x1="12" y1="3.65234" x2="12" y2="18.197" gradientUnits="userSpaceOnUse">
<stop stop-color="#4BAEFE"/>
<stop offset="1" stop-color="#827DFF"/>
</linearGradient>
</defs>
</svg>
